<svg xmlns="http://www.w3.org/2000/svg" viewBox="0 0 655.15 596.89"><defs><style>.cls-1,.cls-2,.cls-4{fill:none;}.cls-1,.cls-2,.cls-3,.cls-4,.cls-5{stroke:#fff;stroke-miterlimit:10;}.cls-1{stroke-width:7px;}.cls-2{stroke-width:5px;}.cls-3,.cls-5{fill:#fff;stroke-width:0.25px;}.cls-4{stroke-width:8px;}.cls-5{font-size:152.1px;font-family:SixHands-Brush, Six Hands;}</style></defs><title>Element 2</title><g id="Ebene_2" data-name="Ebene 2"><g id="Ebene_1-2" data-name="Ebene 1"><rect class="cls-1" x="146.52" y="273.99" width="441.08" height="319.4" rx="2.06"/><path class="cls-2" d="M352,308.38q-74.36-5.79-76.41,3.83-.93,4.41,13.38,12.09"/><path class="cls-2" d="M352.27,348.54c-67.79-11.82-86.46-7.39-89.25,0-3,8,10.36,25.86,25.5,25.5,11.23-.26,22.23-10.51,25.5-25.5"/><path class="cls-1" d="M352.27,399.54c-67.79-11.82-86.46-7.39-89.25,0-3,8,10.36,25.86,25.5,25.5,11.23-.26,22.23-10.51,25.5-25.5"/><path class="cls-2" d="M354.73,450.55c-46.91-10.9-60.32-6.34-63.75,0-4.22,7.77,3.18,23.62,12.75,25.5,8.75,1.71,20.94-7.94,25.5-25.5"/><path class="cls-3" d="M234.2,323.69c2.1-9.77,2.44-20.13,8.26-22.59,3.84-1.62,9.39.46,10.47,3.83,1.42,4.41-5,10.4-4.13,11.3s6.51-6.73,14.6-7.47c.52,0,7.67-.6,10.47,3.84,3.6,5.7-2,16.53-8.27,22.59-5.13,4.95-8.21,3.9-14.6,7.46-11.56,6.44-16.73,18.66-27,41.35-3.26,7.21-3.81,9.48-4.13,11.3-2.39,13.72,5.56,19.94,2.2,26.42-3.75,7.24-18.93,9.65-25.07,3.63-5-4.92-2.42-13.69-6.34-15.12-3.52-1.29-6.57,6.4-14.6,7.46-3.9.52-9.11-.51-10.47-3.83-1.83-4.45,3.48-10.56,4.13-11.3,4.52-5.07,9.46-5.29,14.61-7.46,1.94-.82,6.69-3.08,18.74-18.76C220.9,353.11,230.34,341.61,234.2,323.69Z"/><path class="cls-3" d="M276.24,468.23c10,.18,20.22-1.48,23.76,3.76,2.33,3.45,1.36,9.3-1.74,11-4.05,2.24-11.17-2.91-11.88-1.88s7.85,5.1,10.14,12.89c.14.5,2.07,7.41-1.74,11-4.91,4.64-16.61,1.23-23.77-3.76-5.84-4.07-5.41-7.3-10.13-12.89-8.55-10.1-21.54-12.82-45.79-18.52-7.7-1.81-10-1.92-11.88-1.88-13.92.3-18.49,9.3-25.5,7.25-7.83-2.28-13.12-16.71-8.4-23.9,3.86-5.88,13-5,13.62-9.13.59-3.7-7.55-5.21-10.14-12.89-1.26-3.73-1.25-9,1.74-11,4-2.65,11,1.37,11.88,1.88,5.85,3.45,7,8.25,10.14,12.89,1.18,1.75,4.32,6,22,14.77C244.8,460.86,257.91,467.9,276.24,468.23Z"/><path class="cls-4" d="M388.52,455.69c-38.08-14.81-86.66,15.16-89.25,51-2.53,34.81,38.85,67.81,76.5,63.75,20-2.15,43.08-15.21,51-38.25C437.23,501.79,416.9,466.73,388.52,455.69Z"/><polyline class="cls-1" points="365.02 474.82 365.02 516.89 390.52 544.94"/><path class="cls-2" d="M371.7,310.15q74.35-5.81,76.41,3.82.94,4.42-13.37,12.1"/><path class="cls-2" d="M371.46,350.31c67.78-11.83,86.46-7.39,89.25,0,3,8.05-10.36,25.86-25.5,25.5-11.24-.26-22.23-10.51-25.5-25.5"/><path class="cls-2" d="M371.46,401.31c67.78-11.82,86.46-7.39,89.25,0,3,8.05-10.36,25.86-25.5,25.5-11.24-.26-22.23-10.51-25.5-25.5"/><path class="cls-2" d="M376.6,452.31c46.91-10.9,60.32-6.33,63.75,0,4.21,7.78-3.18,23.63-12.75,25.5-8.75,1.72-20.94-7.93-25.5-25.5"/><path class="cls-3" d="M489.53,325.46c-2.1-9.77-2.44-20.13-8.27-22.59-3.83-1.62-9.39.46-10.47,3.83-1.41,4.41,5,10.4,4.14,11.3s-6.52-6.73-14.61-7.47c-.51,0-7.67-.6-10.47,3.83-3.6,5.71,2,16.53,8.27,22.6,5.13,5,8.22,3.9,14.6,7.46,11.57,6.44,16.74,18.66,27,41.35,3.26,7.21,3.82,9.48,4.13,11.3,2.4,13.71-5.55,19.94-2.2,26.42,3.75,7.24,18.94,9.64,25.08,3.63,5-4.92,2.42-13.69,6.33-15.12,3.52-1.29,6.57,6.4,14.61,7.46,3.9.52,9.1-.52,10.46-3.83,1.83-4.45-3.47-10.56-4.13-11.3-4.51-5.07-9.45-5.3-14.6-7.46-1.95-.82-6.69-3.08-18.74-18.76C502.83,354.88,493.39,343.38,489.53,325.46Z"/><path class="cls-3" d="M447.49,482.75c-10,.18-20.23-1.48-23.77,3.76-2.33,3.45-1.36,9.3,1.75,11,4,2.23,11.17-2.91,11.88-1.88s-7.86,5.1-10.14,12.89c-.15.5-2.07,7.41,1.74,11,4.9,4.63,16.6,1.23,23.76-3.76,5.85-4.07,5.42-7.3,10.14-12.89,8.55-10.1,21.53-12.82,45.78-18.52,7.71-1.81,10-1.92,11.88-1.88,13.92.3,18.5,9.3,25.51,7.25,7.82-2.28,13.11-16.71,8.39-23.9-3.86-5.88-13-5-13.62-9.13-.58-3.7,7.55-5.21,10.14-12.89,1.26-3.73,1.25-9-1.74-11-4-2.65-11,1.37-11.88,1.88-5.84,3.45-7,8.25-10.14,12.89-1.18,1.75-4.31,6-22,14.76C478.92,475.38,465.81,482.42,447.49,482.75Z"/><path class="cls-3" d="M361.91,315.9c-11,1.52-20.21-5.73-18.68-10,1.68-4.62,16.4-6.45,26.47-4.62,3.27.59,9.94,1.8,9.34,5C378.38,309.72,369.37,314.87,361.91,315.9Z"/><path class="cls-3" d="M361.91,300.69c-11,1.52-20.21-5.73-18.68-10,1.68-4.62,16.4-6.44,26.47-4.62,3.27.59,9.94,1.8,9.34,5C378.38,294.51,369.37,299.66,361.91,300.69Z"/><path class="cls-3" d="M362.67,328.46c-11,1.52-20.21-5.73-18.68-10,1.68-4.63,16.4-6.45,26.47-4.63,3.27.6,9.94,1.8,9.33,5C379.14,322.28,370.13,327.43,362.67,328.46Z"/><path class="cls-3" d="M362.67,343.67c-11,1.52-20.21-5.73-18.68-10,1.68-4.63,16.4-6.45,26.47-4.63,3.27.6,9.94,1.8,9.33,5C379.14,337.49,370.13,342.64,362.67,343.67Z"/><path class="cls-3" d="M362.67,358.88c-11,1.52-20.21-5.73-18.68-10,1.68-4.63,16.4-6.45,26.47-4.63,3.27.59,9.94,1.8,9.33,5C379.14,352.7,370.13,357.85,362.67,358.88Z"/><path class="cls-3" d="M362.67,374.09c-11,1.52-20.21-5.73-18.68-10,1.68-4.63,16.4-6.45,26.47-4.63,3.27.59,9.94,1.8,9.33,5C379.14,367.91,370.13,373.06,362.67,374.09Z"/><path class="cls-3" d="M362.67,389.3c-11,1.52-20.21-5.73-18.68-10,1.68-4.63,16.4-6.45,26.47-4.63,3.27.59,9.94,1.8,9.33,5C379.14,383.12,370.13,388.27,362.67,389.3Z"/><path class="cls-3" d="M362.67,404.51c-11,1.52-20.21-5.73-18.68-10,1.68-4.63,16.4-6.45,26.47-4.63,3.27.59,9.94,1.8,9.33,5C379.14,398.33,370.13,403.48,362.67,404.51Z"/><path class="cls-3" d="M362.67,419.72c-11,1.52-20.21-5.73-18.68-10,1.68-4.63,16.4-6.45,26.47-4.63,3.27.59,9.94,1.8,9.33,5C379.14,413.54,370.13,418.69,362.67,419.72Z"/><path class="cls-3" d="M362.67,434.93c-11,1.52-20.21-5.73-18.68-10,1.68-4.63,16.4-6.45,26.47-4.63,3.27.59,9.94,1.8,9.33,5C379.14,428.75,370.13,433.89,362.67,434.93Z"/><path class="cls-3" d="M362.67,450.13c-11,1.53-20.21-5.72-18.68-10,1.68-4.63,16.4-6.45,26.47-4.63,3.27.59,9.94,1.8,9.33,5C379.14,444,370.13,449.1,362.67,450.13Z"/><text class="cls-5" transform="translate(121.53 174.79) rotate(-11.11)">R</text><text class="cls-5" transform="translate(217.47 156.77) rotate(-6.52)">a</text><text class="cls-5" transform="matrix(1, -0.06, 0.06, 1, 276.06, 150.2)">Y</text><text class="cls-5" transform="translate(327.02 147.39) rotate(-0.24)">-</text><text class="cls-5" transform="matrix(1, 0.06, -0.06, 1, 374.39, 146.61)">T</text><text class="cls-5" transform="translate(455.65 152.39) rotate(6.8)">i</text><text class="cls-5" transform="translate(486.06 155.36) rotate(10.05)">m</text><text class="cls-5" transform="translate(564.49 169.87) rotate(13.75)">e</text></g></g></svg>