<?xml version="1.0" encoding="UTF-8"?>
<svg width="376px" height="228px" viewBox="0 0 376 228" version="1.1" xmlns="http://www.w3.org/2000/svg" xmlns:xlink="http://www.w3.org/1999/xlink">
    <!-- Generator: Sketch 55.2 (78181) - https://sketchapp.com -->
    <title>Group 2</title>
    <desc>Created with Sketch.</desc>
    <defs>
        <path d="M0,1.42108547e-14 C62,15.0976069 124.333333,22.6464103 187,22.6464103 C249.666667,22.6464103 312.666667,15.0976069 376,1.42108547e-14 L376,184.664835 C313.5,213.319218 251,227.64641 188.5,227.64641 C126,227.64641 63.5,213.319218 1,184.664835 L0,1.42108547e-14 Z" id="path-1"></path>
    </defs>
    <g id="Startpage" stroke="none" stroke-width="1" fill="none" fill-rule="evenodd">
        <g id="Group-2">
            <g id="Rectangle">
                <g id="Mask">
                    <mask id="mask-2" fill="white">
                        <use xlink:href="#path-1"></use>
                    </mask>
                    <use fill-opacity="0.74" fill="#C86851" xlink:href="#path-1"></use>
                </g>
                <rect fill="#B3CCD0" x="0" y="0" width="375" height="228"></rect>
            </g>
            <g id="logo-copy" transform="translate(113.000000, 48.000000)" stroke="#FFFFFF">
                <path d="M69,78.7244811 C54.0913483,77.4409483 46.430487,77.8629014 46.0174161,79.9903406 C45.8289274,80.9690068 47.1704053,82.3055599 50.0418497,84" id="Path" stroke-width="5"></path>
                <path d="M69,91.2263177 C48.5891992,87.6206991 42.9678737,88.9709012 42.1278364,91.2263177 C41.2245704,93.6798452 45.247115,99.1080841 49.8055974,98.9983612 C53.1868231,98.916069 56.4987985,95.7950601 57.4833584,91.2263177" id="Path" stroke-width="5"></path>
                <path d="M69,106.226318 C48.5891992,102.620699 42.9678737,103.970901 42.1278364,106.226318 C41.2245704,108.679845 45.247115,114.108084 49.8055974,113.998361 C53.1868231,113.919117 56.4987985,110.79506 57.4833584,106.226318" id="Path" stroke-width="7"></path>
                <path d="M71,122.037243 C56.5580202,118.659605 52.4295413,120.072635 51.3735619,122.037243 C50.0743687,124.448072 52.3525748,129.356493 55.2988496,129.939059 C57.9926744,130.472044 61.7455572,127.481749 63.1494248,122.037243" id="Path" stroke-width="5"></path>
                <path d="M33.7336201,83.0430945 C34.3678116,80.0684065 34.4700036,76.9203472 36.2192901,76.1721128 C37.3734585,75.6763315 39.0415926,76.308985 39.3662024,77.3370469 C39.7899986,78.6783939 37.863379,80.5003142 38.1248702,80.7710169 C38.3863615,81.0417196 40.0815464,78.7270595 42.5131148,78.5019809 C42.6694084,78.4867729 44.818446,78.3194847 45.6600271,79.6669149 C46.74206,81.4036704 45.0588977,84.694685 43.1743571,86.5378966 C41.6324602,88.0586982 40.706721,87.7271634 38.7861126,88.8099742 C35.3085791,90.765725 33.7546596,94.4825642 30.6708658,101.387003 C29.6910249,103.579999 29.5257143,104.270443 29.4295336,104.820973 C28.711184,108.994053 31.1006733,110.888972 30.090776,112.859931 C28.9636584,115.062052 24.4010863,115.792036 22.5556191,113.964033 C21.0527956,112.467564 21.8282525,109.797036 20.6500389,109.362087 C19.5920512,108.96972 18.6753289,111.308713 16.2617944,111.634165 C15.0895921,111.789286 13.52365,111.476001 13.1148821,110.469231 C12.5648487,109.112676 14.1578416,107.257298 14.3562143,107.032219 C15.7147667,105.490126 17.1995563,105.420169 18.7474644,104.763183 C19.3305599,104.513772 20.7582422,103.826369 24.3770411,99.0571354 C29.7391153,91.9914911 32.576446,88.4936474 33.7336201,83.0430945 Z" id="Path" stroke-width="0.25" fill="#FFFFFF" fill-rule="nonzero"></path>
                <path d="M46.5072439,127.290617 C49.4982612,127.344727 52.5550809,126.842706 53.613901,128.417911 C54.310808,129.455021 54.0206794,131.213599 53.093464,131.724639 C51.879111,132.395003 49.7524977,130.849859 49.5401354,131.159489 C49.3277732,131.469119 51.888084,132.689602 52.573027,135.034373 C52.6149012,135.184679 53.1921676,137.261906 52.05259,138.341101 C50.5840005,139.732933 47.0845102,138.710854 44.9429418,137.210802 C43.1961877,135.984306 43.3248015,135.01333 41.9100503,133.335917 C39.3557215,130.296734 35.47039,129.482076 28.217173,127.76859 C25.9081076,127.230495 25.2112006,127.200434 24.6728175,127.200434 C20.5093214,127.287611 19.1424265,129.996122 17.0457233,129.379868 C14.7037568,128.694474 13.1215086,124.353641 14.5332688,122.19525 C15.6878015,120.427653 18.4215913,120.692191 18.6070344,119.450665 C18.7835044,118.338402 16.3488163,117.881472 15.5741428,115.575781 C15.1972746,114.454499 15.2002657,112.870276 16.0945798,112.269053 C17.2909868,111.472432 19.3846989,112.683897 19.6479084,112.834203 C21.3976535,113.874319 21.7416205,115.317255 22.6808,116.709087 C23.03374,117.235157 23.9729194,118.512757 29.261038,121.149121 C37.0975034,125.072103 41.0187271,127.200434 46.5072439,127.290617 Z" id="Path" stroke-width="0.25" fill="#FFFFFF" fill-rule="nonzero"></path>
                <path d="M79.7238557,123.17273 C68.3357763,118.688046 53.8076016,127.760301 53.0330447,138.605852 C52.2764313,149.136689 64.6513977,159.125853 75.9108827,157.897255 C81.8920168,157.246643 88.7942455,153.294553 91.1627746,146.322413 C94.2998795,137.120036 88.2110849,126.513547 79.7238557,123.17273 Z" id="Path" stroke-width="8"></path>
                <polyline id="Path" stroke-width="7" points="73 129 73 141.600599 81 150"></polyline>
                <path d="M75,79.7244811 C89.9086443,78.4409483 97.5695018,78.8629014 97.9825725,80.9903406 C98.1710611,81.9690068 96.8305865,83.3055599 93.9611487,85" id="Path" stroke-width="5"></path>
                <path d="M75,92.2263177 C95.4077899,88.6206991 101.032126,89.9709012 101.872164,92.2263177 C102.77543,94.6798452 98.752885,100.108084 94.1944026,99.9983612 C90.810166,99.916069 87.5012015,96.7950601 86.5166416,92.2263177" id="Path" stroke-width="5"></path>
                <path d="M75,107.226318 C95.4077899,103.620699 101.032126,104.970901 101.872164,107.226318 C102.77543,109.679845 98.752885,115.108084 94.1944026,114.998361 C90.810166,114.916069 87.5012015,111.79506 86.5166416,107.226318" id="Path" stroke-width="5"></path>
                <path d="M77,122.037243 C91.4428278,118.659605 95.5715491,120.072635 96.6275905,122.037243 C97.9237812,124.448072 95.6485201,129.356493 92.7020724,129.939059 C90.0080894,130.472044 86.2549862,127.481749 84.8510362,122.037243" id="Path" stroke-width="5"></path>
                <path d="M110.26638,84.0432471 C109.632188,81.0684947 109.533002,77.9203672 107.78071,77.1721166 C106.626541,76.6763245 104.958407,77.3089917 104.633798,78.3370758 C104.210001,79.6784519 106.136621,81.5004117 105.878135,81.7711202 C105.61965,82.0418288 103.918454,79.7271186 101.486885,79.5020351 C101.330592,79.4868267 99.181554,79.3195349 98.3399729,80.6669944 C97.25794,82.4007458 98.9411023,85.6948734 100.825643,87.5381249 C102.36754,89.0589594 103.296285,88.7274175 105.213887,89.8102517 C108.691421,91.7660449 110.24534,95.4829646 113.329134,102.387553 C114.308975,104.580597 114.477291,105.268014 114.570466,105.821598 C115.291822,109.994768 112.899327,111.886686 113.909224,113.860729 C115.036342,116.059856 119.601919,116.792898 121.447387,114.964855 C122.95021,113.468354 122.174753,110.797768 123.349961,110.36281 C124.407949,109.970434 125.324671,112.309478 127.738206,112.634937 C128.913414,112.790062 130.47635,112.47677 130.885118,111.466936 C131.435151,110.113393 129.842158,108.257975 129.643786,108.032891 C128.285233,106.490765 126.800444,106.420807 125.255541,105.760764 C124.66944,105.514389 123.244763,104.82393 119.622959,100.054593 C114.26389,93.0070459 111.42656,89.4908764 110.26638,84.0432471 Z" id="Path" stroke-width="0.25" fill="#FFFFFF" fill-rule="nonzero"></path>
                <path d="M97.4911243,131.2833 C94.5018871,131.337416 91.4438974,130.835339 90.3857074,132.41072 C89.6892151,133.447945 89.9791711,135.206719 90.9088239,135.717816 C92.119465,136.391261 94.2478019,134.845945 94.4600378,135.15561 C94.6722736,135.465274 92.1104973,136.6889 91.4438974,139.033932 C91.3990588,139.181248 90.8251253,141.258706 91.9640247,142.341028 C93.4287509,143.733015 96.9261585,142.710822 99.0664524,141.210602 C100.815156,139.98397 100.686619,139.012887 102.097539,137.335287 C104.653337,134.295765 108.533367,133.481016 115.782267,131.764333 C118.08398,131.220165 118.771504,131.1901 119.333481,131.202126 C123.494499,131.289313 124.86357,133.998126 126.959025,133.381803 C129.296609,132.696332 130.877915,128.355017 129.466995,126.196385 C128.31315,124.428591 125.580987,124.693159 125.395654,123.451495 C125.222278,122.336101 127.652528,121.882127 128.426741,119.576179 C128.803385,118.454773 128.800395,116.870373 127.906613,116.269083 C126.710919,115.472373 124.618452,116.683973 124.3554,116.834296 C122.606696,117.871521 122.262933,119.317624 121.324313,120.709611 C120.971583,121.23574 120.035952,122.513482 114.747991,125.15014 C106.886297,129.064539 102.967407,131.184087 97.4911243,131.2833 Z" id="Path" stroke-width="0.25" fill="#FFFFFF" fill-rule="nonzero"></path>
                <path d="M71.7563984,81.9336903 C68.396667,82.4230014 65.5836554,80.0891164 66.0509635,78.7145386 C66.5640862,77.2240713 71.0600177,76.6381857 74.1356991,77.2240713 C75.1344557,77.4140013 77.1716747,77.8035186 76.9884166,78.8336472 C76.7868327,79.9345971 74.0349072,81.5924602 71.7563984,81.9336903 Z" id="Path" stroke-width="0.25" fill="#FFFFFF" fill-rule="nonzero"></path>
                <path d="M71.7563984,76.9336903 C68.396667,77.4230014 65.5836554,75.0891164 66.0509635,73.7145386 C66.5640862,72.2240713 71.0600177,71.6381857 74.1356991,72.2240713 C75.1344557,72.4172204 77.1716747,72.8035186 76.9884166,73.8336472 C76.7868327,74.9442545 74.0349072,76.6021177 71.7563984,76.9336903 Z" id="Path" stroke-width="0.25" fill="#FFFFFF" fill-rule="nonzero"></path>
                <path d="M72.7580846,84.9328894 C69.3977071,85.4253397 66.5810998,83.0918335 67.0515526,81.7142603 C67.5647739,80.224035 72.06157,79.6382445 75.1378428,80.224035 C76.1337365,80.4139341 78.1744021,80.8033882 77.9880539,81.8333495 C77.7894862,82.9469952 75.0370315,84.6013706 72.7580846,84.9328894 Z" id="Path" stroke-width="0.25" fill="#FFFFFF" fill-rule="nonzero"></path>
                <path d="M72.7580846,89.9328894 C69.3977071,90.4253397 66.5810998,88.0918335 67.0515526,86.7142603 C67.5647739,85.224035 72.06157,84.6382445 75.1378428,85.224035 C76.1337365,85.4139341 78.1744021,85.8033882 77.9880539,86.8333495 C77.7894862,87.9469952 75.0370315,89.6013706 72.7580846,89.9328894 Z" id="Path" stroke-width="0.25" fill="#FFFFFF" fill-rule="nonzero"></path>
                <path d="M72.7580846,93.9328894 C69.3977071,94.4253397 66.5810998,92.0918335 67.0515526,90.7142603 C67.5647739,89.224035 72.06157,88.6382445 75.1378428,89.224035 C76.1337365,89.4139341 78.1744021,89.8033882 77.9880539,90.8333495 C77.7894862,91.9469952 75.0370315,93.6013706 72.7580846,93.9328894 Z" id="Path" stroke-width="0.25" fill="#FFFFFF" fill-rule="nonzero"></path>
                <path d="M72.7580846,98.9336164 C69.3977071,99.4229202 66.5810998,97.0922892 67.0515526,95.7145129 C67.5647739,94.224068 72.06157,93.6381911 75.1378428,94.224068 C76.1337365,94.4139951 78.1744021,94.8035066 77.9880539,95.8336197 C77.7894862,96.9538678 75.0370315,98.6020488 72.7580846,98.9336164 Z" id="Path" stroke-width="0.25" fill="#FFFFFF" fill-rule="nonzero"></path>
                <path d="M72.7580846,103.933616 C69.3977071,104.42292 66.5810998,102.092289 67.0515526,100.714513 C67.5647739,99.224068 72.06157,98.6381911 75.1378428,99.224068 C76.1337365,99.4139951 78.1744021,99.8035066 77.9880539,100.83362 C77.7894862,101.94743 75.0370315,103.602049 72.7580846,103.933616 Z" id="Path" stroke-width="0.25" fill="#FFFFFF" fill-rule="nonzero"></path>
                <path d="M72.7580846,107.933616 C69.3977071,108.42292 66.5810998,106.092289 67.0515526,104.714513 C67.5647739,103.224068 72.06157,102.638191 75.1378428,103.224068 C76.1337365,103.413995 78.1744021,103.803507 77.9880539,104.83362 C77.7894862,105.94743 75.0370315,107.602049 72.7580846,107.933616 Z" id="Path" stroke-width="0.25" fill="#FFFFFF" fill-rule="nonzero"></path>
                <path d="M72.7580846,112.933574 C69.3977071,113.423188 66.5810998,111.091081 67.0515526,109.712432 C67.5647739,108.224265 72.06157,107.638017 75.1378428,108.224265 C76.1337365,108.414312 78.1744021,108.80407 77.9880539,109.834836 C77.7894862,110.94613 75.0370315,112.601797 72.7580846,112.933574 Z" id="Path" stroke-width="0.25" fill="#FFFFFF" fill-rule="nonzero"></path>
                <path d="M72.7580846,116.933648 C69.3977071,117.423269 66.5810998,115.087906 67.0515526,113.712458 C67.5647739,112.224268 72.06157,111.638012 75.1378428,112.224268 C76.1337365,112.414319 78.1744021,112.804083 77.9880539,113.834863 C77.7894862,114.942953 75.0370315,116.611529 72.7580846,116.933648 Z" id="Path" stroke-width="0.25" fill="#FFFFFF" fill-rule="nonzero"></path>
                <path d="M72.7580846,121.933667 C69.3977071,122.423153 66.5810998,120.088431 67.0515526,118.71336 C67.5647739,117.225579 72.06157,116.636263 75.1378428,117.225579 C76.1337365,117.415577 78.1744021,117.805234 77.9880539,118.835732 C77.7894862,119.937077 75.0370315,121.601975 72.7580846,121.933667 Z" id="Path" stroke-width="0.25" fill="#FFFFFF" fill-rule="nonzero"></path>
                <path d="M13.6945117,8.07792471 C14.6603008,7.97968498 15.8137982,7.93977509 16.5737138,8.17002445 C16.8189455,8.21607432 16.9430752,8.38185386 17.1428936,8.43711371 C18.0905175,8.72569291 18.7111657,8.79323272 19.4135578,9.50854073 C19.8902806,9.99691141 20.2850349,10.5610476 20.5821929,11.1786161 C20.8931903,11.6780884 21.099316,12.237204 21.1877034,12.8210615 C21.2694473,12.996051 21.0332982,12.9929811 21.1150421,13.1679706 C21.311833,13.6990791 21.0938492,13.7819689 21.2543095,14.3775472 C20.8899223,16.7822296 20.1532219,19.1134518 19.0714444,21.285028 C19.1804363,21.5920272 18.9624525,21.6871969 19.0169484,21.9604261 C18.4296033,22.6450342 18.4689615,23.793211 17.7362939,24.3550195 C17.978498,24.876918 17.018764,25.4970563 17.1792243,26.0834247 C17.2700508,26.5439234 18.2721706,26.6298832 18.7232759,26.7772428 C19.2589347,27.0370681 19.8307259,27.2120454 20.4187051,27.2960713 C22.0778037,28.1065491 23.7066268,29.0121966 25.3929733,29.7766244 C25.6200398,29.2547259 25.3082019,28.3674983 25.0902181,27.78727 C25.2173753,27.9530495 25.2900366,27.8455998 25.5594887,27.78727 C26.3254594,28.3490784 27.7181334,28.0236593 28.2388724,29.0152665 C28.4810766,29.0613164 28.6173164,29.2731458 28.82319,29.3744555 C29.3560392,29.220956 29.6376015,29.4512053 29.9887976,29.570935 C30.0311833,29.8011844 29.9887976,29.8103943 30.0675139,29.9823139 C30.4277926,30.1480934 30.6155009,30.636222 30.9485316,30.9033113 C30.9500027,31.1538581 30.9671935,31.4040562 31,31.6523892 C30.7154101,33.0891452 28.4326357,32.6869763 27.2488628,32.6378565 C25.0902181,32.082188 22.8589122,31.6646692 20.9757747,30.657712 C18.4507962,29.7367145 15.8531564,28.9170268 13.6430433,27.4557109 C12.6364942,27.1224361 11.7578868,26.4783951 11.130175,25.613716 C10.7705799,25.03456 10.5622074,24.3721554 10.5246645,23.6888313 C10.5729057,23.4051035 10.6616357,23.1300113 10.7880616,22.8722136 C10.8788881,22.6143343 11.0696239,22.387155 11.1604505,22.1323457 C11.129552,22.0090563 11.1213413,21.8810459 11.1362301,21.7547367 C11.2090251,21.5082194 11.3435845,21.285041 11.5267843,21.1069685 C11.5449496,20.9596089 11.6085282,20.7999694 11.6266935,20.6587498 C12.0989917,19.9465117 12.0929366,19.1851539 12.6288133,18.5558056 C12.4380775,18.3071363 12.7741358,18.0983769 12.8649624,17.8435676 C12.9376236,17.4935886 12.9043206,17.0729997 13.1858829,16.8274004 C13.1858829,16.6339909 13.3130401,16.5204013 13.2585442,16.241032 C13.5128586,15.8572831 13.4341422,15.2064449 13.7974485,14.8963758 C13.9276332,13.3951499 14.8631468,12.1640834 14.3272701,10.5983877 C12.1050468,10.5154979 9.90704389,11.7649845 8.78079448,12.9868411 C8.58567029,13.3275332 8.43601293,13.6929846 8.33574431,14.0736181 C7.94821763,14.2486076 7.73023387,14.5310468 7.17013671,14.5924466 C6.67967326,14.9761955 7.10958567,15.9831527 6.78261003,16.4774214 C7.02481421,19.6640725 7.00362134,23.1914927 6.94609785,26.3013941 C7.04297952,27.044332 7.21252244,27.9131396 6.93096009,28.6345876 C7.16105406,29.3498956 7.17619182,30.633152 7.31848677,31.6032694 C7.3608725,32.0699081 7.4305062,32.438307 7.45775417,32.812846 C7.48437883,33.1108577 7.49549528,33.4100852 7.49105725,33.7092835 C7.49105725,33.7553334 7.49105725,33.9947927 7.49105725,33.9947927 C7.50922256,34.0868925 7.66362772,34.1513623 7.68179303,34.243462 C8.07537482,35.5451384 8.15106362,36.9082146 9.1592385,37.9919216 C8.03904419,38.0256915 6.6645355,37.9673617 5.64727796,37.5498428 C5.0962324,37.6765734 4.5189649,37.6071974 4.01239978,37.3533634 C3.44633054,37.0898607 2.96097236,36.6761902 2.60761556,36.1560667 C2.41082467,35.8490676 2.34724608,35.5420684 2.00210513,35.4683886 C1.91430611,35.2473492 1.86889283,35.0170999 1.71448767,34.95263 C1.30092571,34.0378779 0.989182362,33.0792413 0.785029145,32.094468 C0.582183148,31.2778503 0.330896317,30.4704425 0.451998404,29.8748642 C0.0493339629,28.7328273 0.115940111,27.1487117 0.103829902,25.8685253 C0.103829902,25.4356565 -0.0112170809,25.0334876 0.000893127896,24.6036888 C0.0850135107,22.1990232 0.358361919,19.8050082 0.818332219,17.4444687 C0.849136152,17.0074937 1.01552099,16.5916112 1.29365791,16.256382 C1.15741806,16.0445526 1.19374869,15.9892927 1.19677624,15.7529034 C1.53586209,14.3529873 2.1050419,13.1464806 2.3835767,11.7097246 C2.79229625,11.1509862 2.82257177,10.3374384 3.33725564,9.86772974 C3.33353634,9.50375053 3.44612304,9.14833149 3.65817617,8.85463255 C4.14838339,8.81420351 4.63385111,8.72787591 5.10837367,8.59675327 C5.13663083,8.49646688 5.17296145,8.44120703 5.21736555,8.43097373 C6.22856798,8.32659402 7.16710916,8.32966401 7.46078172,9.35197117 C9.41355289,8.50158353 11.5721976,8.2621242 13.6945117,8.07792471 Z" id="Path" stroke-width="0.25" fill="#FFFFFF" fill-rule="nonzero"></path>
                <path d="M45.719075,31.1320567 C46.0073349,31.5727865 46.5497595,31.748462 46.9589026,32.0320085 C47.2254655,33.5082992 46.1375168,33.9644391 45.3626246,34.6640591 C44.3273685,34.7349457 43.7942427,34.2294934 43.0286491,33.7394512 C42.5761121,33.5082992 41.9902935,33.3850181 41.6772371,33.138456 C39.743106,31.9888601 39.2626728,28.6479434 38.5559711,25.8032329 C38.2615121,26.1114356 38.3668974,26.626134 38.0755379,26.9898131 C38.3142047,27.8127142 37.6292,28.4537757 37.5982043,29.0239506 C37.5477365,29.5024172 37.4437753,29.9737972 37.2882474,30.4293547 C37.0836759,31.1135646 36.9131996,31.6991496 36.6683336,32.4326719 C36.5908444,32.5836912 36.3800737,32.796351 36.3583767,32.9412063 C36.2374935,33.14462 36.3118832,33.37269 36.2281948,33.4774789 C35.9182379,34.0938842 35.1433457,34.3527744 34.6784103,34.8335706 C34.449867,34.7455375 34.190314,34.8125401 34.0337,35 C33.5191715,34.6332388 32.9240543,34.417497 32.4126254,34.1000483 C32.0926409,33.4825018 31.6241531,32.9531423 31.0488151,32.559035 C30.3359142,32.1213872 30.1685375,32.327883 29.8089875,31.2368456 C29.7779918,30.9563812 29.4649353,30.7098191 29.3843466,30.4355187 C29.136381,29.5109108 29.4463379,28.493842 29,27.5075936 C29.2913595,27.1439144 29.0898875,26.6477082 29.1270823,26.1268457 C29.3347534,24.6382269 29.8647797,23.0694754 30.0910483,21.7226298 C30.2243297,21.6609893 30.1995332,21.4144272 30.4010052,21.4144272 C30.4289013,19.996695 31.1077069,19.306321 31.6873263,18.1536431 C32.0809715,17.4509411 32.3072401,16.6126299 33.2371108,16.279771 C33.6803491,16.4184622 33.9283147,16.1071775 34.1669815,16.0825213 C34.6350164,16.0270448 34.9418737,16.2304586 35.406809,16.2212125 C35.9740302,16.2212125 36.4668616,15.9592403 36.9008013,16.0054707 C37.7531828,16.0054707 38.7605427,16.4092161 39.4672444,16.4677746 C39.6656168,16.5386612 39.8887858,16.4215442 40.0406646,16.4985949 C40.2390371,16.5694815 40.3506215,16.8376178 40.6605784,16.8992583 C40.8354023,16.9369235 41.0124228,16.9636865 41.1906047,16.979391 C41.5619773,17.1900574 41.8858622,17.4743442 42.1421724,17.8146202 C42.5823112,18.7392282 42.5730125,20.7394634 42.7124931,21.9506998 C42.7124931,22.4222498 42.6783978,22.8968819 42.684597,23.368432 C42.8457746,24.76459 43.0534457,26.157666 42.8519737,27.3134259 C43.3541039,28.7650604 43.1619306,31.5727865 44.2963728,32.4326719 C44.9751784,32.207684 45.0185724,31.3539626 45.719075,31.1320567 Z M33.7671371,28.2935103 C35.0069647,26.1730761 36.9441953,21.6579073 37.7469836,19.1614658 C37.1797625,19.1768759 36.349078,19.3679616 35.9988267,19.2169423 C35.0503586,18.8070327 34.235172,19.5590472 33.8291284,20.2648313 C32.9798465,22.3883475 33.7609379,27.1130942 33.7516392,28.2935103 L33.7671371,28.2935103 Z" id="Shape" stroke-width="0.25" fill="#FFFFFF" fill-rule="nonzero"></path>
                <path d="M64.3047855,4.32164611 C63.0808038,6.01513796 61.6395655,7.53775496 60.3788644,9.14275804 C60.0618319,9.8179221 59.6575443,10.4488042 59.1763025,11.0193301 C58.7785085,12.2398648 58.0869589,13.2193438 57.542287,14.317825 L57.3556298,14.317825 C56.7742386,15.6054891 56.0459695,16.7588944 55.3666597,17.961121 C54.9841655,19.4684813 55.6542954,21.4304908 54.9566259,22.3062244 C54.8705867,22.656978 54.859121,23.021806 54.9229664,23.3772436 C54.8862469,23.5664265 54.6567504,23.6244019 54.616971,23.8135847 C54.4058341,25.0341194 53.9682607,26.3583995 53.8091431,27.7162443 C53.7112246,28.4638218 53.8091431,29.3426068 53.6102461,30.0047468 C53.6867449,30.5570388 53.7999632,31.7134954 53.882582,32.4061488 C53.747944,32.5068429 53.5062077,32.3329167 53.3195505,32.2963007 C53.1451331,32.5404076 53.5337472,32.7967199 53.4021692,32.9889541 C51.685535,33.1323669 51.5661968,31.8355488 50.2045173,31.6341606 C50.0821191,31.0818687 49.286531,31.2191788 48.821418,31.057458 C48.2981659,30.8560698 47.6831151,29.0313704 48.1880075,28.0244293 C48.2124872,25.9800338 49.0294949,24.7717044 49.35691,23.0812639 C49.5374473,22.9775185 49.5772267,22.837157 49.7608239,22.8249517 C49.6965649,22.519818 49.9230015,22.3519945 49.7608239,22.1292469 C50.0668193,21.8790373 50.0668193,21.5555956 50.1739177,21.1772299 C50.6512705,20.5456032 50.9297264,19.6942802 51.553957,19.148091 C51.621276,16.2157564 51.7895734,12.5327931 51.7712137,9.65233127 C51.7926334,9.23429814 51.8262929,8.95357517 51.5294774,8.69116022 C51.7956934,8.44400195 51.5294774,7.90086402 51.4652183,7.48588223 C51.3305803,6.7505101 51.287741,6.00903529 51.1592229,5.17907172 C50.8532275,3.70832744 50.3881145,2.24673718 50.2718362,0.952970435 C50.553352,0.983483801 50.9021868,1.3832089 51.3672998,1.40151692 C51.5959286,1.65609956 51.859682,1.87698744 52.150648,2.05755431 C53.35321,4.40708354 54.9046067,6.36604168 55.3635998,9.54858582 C56.0459695,9.24345215 55.9388711,8.16938165 56.7222194,7.98630145 C57.0282148,7.41265015 57.1597928,6.65897 57.7993232,6.39350371 C59.0416645,4.4284429 60.3727445,2.49389545 62.2087169,0.952970435 C62.3005156,0.901097711 62.2913357,0.760736225 62.2852158,0.623426075 C62.3739545,0.571553351 62.3831343,0.711914838 62.5177723,0.656990778 C62.6989957,0.293531684 63.052699,0.0465217765 63.4571782,0.000953394992 C63.9222912,-0.026508635 64.5128623,0.547142658 64.9443159,0.708863501 C65.0850737,0.745479541 65.268671,0.690555481 65.3635296,0.730222858 C65.602206,0.858378998 65.7643835,1.22148806 66,1.25505276 C65.9694005,2.41761203 64.9075964,3.40624511 64.3047855,4.32164611 Z" id="Path" stroke-width="0.25" fill="#FFFFFF" fill-rule="nonzero"></path>
                <path d="M74.9789203,20.3587488 C74.0534704,20.7263071 72.9676093,21.5032597 71.8416452,21.7811697 C71.0453017,21.9781708 70.2202221,22.0428388 69.4015424,21.9724196 C68.744473,21.9275954 68.0874036,21.5690019 67.4766067,21.4345293 C66.3969152,21.2552325 65.5053985,20.9414632 64.8915167,20.3527722 C64.5729541,20.2893784 64.2701603,20.1665712 64,19.9911904 C64.1388175,19.5817962 64.7002571,19.4891595 65.0735219,19.3068745 C66.3876607,18.7092187 67.7912596,18.1115628 69.666838,18.0159379 C70.8390746,17.920313 72.1100257,18.2789065 73.3686375,18.4552149 C74.2972966,18.5308573 75.196554,18.8076112 76,19.2650386 C75.7254499,19.6744328 75.1177378,19.7670695 74.9789203,20.3587488 Z" id="Path" stroke-width="0.25" fill="#FFFFFF" fill-rule="nonzero"></path>
                <path d="M103.129254,7.30074475 C102.558435,7.5369439 101.884382,7.9525348 101.094952,8.04223068 C100.725023,8.08134023 100.351516,8.07330094 99.9836762,8.01831178 C98.6386076,8.07511917 96.6012691,8.08707862 94.8432676,8.11697725 C94.6489462,8.24255148 94.6702001,8.65216266 94.524459,8.78072675 C94.6424027,10.226257 94.5975982,11.6801991 94.390863,13.1160276 C94.3594781,13.4789414 94.3523781,13.8434955 94.3696091,14.2073274 C94.3331739,14.8053 94.0204378,15.3255361 93.8959507,15.8637113 C93.7927174,16.7606701 93.8959507,17.3586427 93.6105411,18.1718853 C93.5373153,18.4523108 93.4885576,18.738385 93.4648001,19.026986 C93.3949658,19.3887594 93.1915356,19.6937254 93.1217013,20.0554988 C93.098919,20.3430853 93.098919,20.6319825 93.1217013,20.9195691 C92.9273799,21.8165279 92.5964263,22.6656488 92.4446126,23.5685874 C92.3201255,24.1067626 92.3292343,24.6987554 92.247255,25.2429104 C92.180457,25.601694 91.9739905,25.9096498 91.9071925,26.2684333 C91.9417401,26.6425942 92.0108482,27.0128756 92.113659,27.3746825 C92.113659,27.5122162 92.0529336,27.6437701 92.0924051,27.7364559 C92.2017109,28.1998846 92.4962293,28.6722829 92.5539184,29.2313872 C92.515985,29.4706569 92.5007379,29.7128828 92.5083744,29.954934 C92.5569547,30.6426024 92.8848721,31.3452201 92.426395,32 C90.908259,31.8176184 90.2250978,30.9565379 89.3415426,30.2658797 L88.7889411,30.2300013 C88.6906058,30.0780936 88.6379703,29.9018683 88.6371275,29.7217247 C87.5956862,27.8799693 87.1827532,24.8482486 87.4469089,22.1304634 C87.638194,19.8192996 88.0723809,18.0672401 88.3729718,16.219505 C88.3729718,16.1268193 88.6583814,16.0999105 88.4367335,15.9504174 C88.397262,15.8098938 88.5824746,15.8218533 88.6371275,15.6873094 C89.010589,14.1624795 89.5996257,12.8768386 90.1552635,11.5433598 C90.2858232,10.2278203 91.0661451,9.54613159 91.1936686,8.27842983 C91.0266736,7.99738274 90.5013985,8.23657175 90.328331,8.04522054 C89.881999,8.51761884 88.6978529,8.21863258 87.8628781,8.25750079 C87.6321214,8.25750079 87.4863804,8.37410543 87.3011678,8.36214598 C85.0786166,8.40998379 82.9653713,7.41435953 81.5504685,6.37089747 C80.6729859,6.31707994 80.5302811,5.67126961 80.0991305,5.18990173 C79.926063,4.95071271 79.6072544,4.89091546 79.579928,4.61285824 C79.4007879,4.50821304 79.2216479,4.40655771 79,4.25706458 C80.8430171,4.37067936 82.3581169,3.8235345 84.0007401,3.46774085 C86.3079811,2.92114743 88.6459095,2.50882923 91.0023834,2.23292758 C94.9191744,1.75454955 100.275158,1.88610351 103.39341,3.8474534 C104.420054,4.41704282 105.415322,5.03980754 106.375029,5.71312769 C106.678656,5.91643835 107.131061,6.21542461 106.964066,6.66091414 C105.637215,6.40378596 103.499679,5.81777288 103.129254,7.30074475 Z" id="Path" stroke-width="0.25" fill="#FFFFFF" fill-rule="nonzero"></path>
                <path d="M103.605532,35 C102.631653,34.0462638 101.31544,33.3286908 101.005569,31.7149086 C100.976057,31.5695773 101.070494,31.5362723 101.132468,31.4121352 C101.153126,28.124016 104.561705,21.3509749 105.821846,19.0498971 C106.057937,18.9832869 106.11696,18.7622623 106.361906,18.6956522 C106.369364,18.5877985 106.369364,18.4795383 106.361906,18.3716846 C106.595047,18.3081022 106.716044,18.0446894 106.904917,17.9750515 C106.904917,17.6026402 107.247251,17.3695047 107.495147,17.1182027 C108.610682,17.6268621 110.151182,18.0023011 110.09511,19.2376166 C110.021332,20.2488797 109.156645,20.7000121 108.914651,21.5962214 C108.766493,22.3491422 108.484375,23.067609 108.082426,23.7156352 C108.064719,23.8518833 107.899455,24.1092406 108.082426,24.1334625 C107.087889,25.6806346 104.942403,32.4657866 104.304954,34.0583747 C104.361831,34.286825 104.349477,34.5276353 104.269541,34.7486981 C104.151495,34.9666949 103.80621,34.8395301 103.605532,35 Z M112.42947,10.8053773 C112.76295,11.4472569 113.848973,11.8136127 113.993579,12.5251302 C114.064407,13.0913165 113.5332,12.9792903 113.190867,13.2154536 C112.801315,13.4455613 111.977944,14.68996 111.343447,14.7050987 C110.883067,14.7898753 110.579099,14.2872714 110.162987,14.4204917 C109.177303,13.5606152 110.074452,11.3049534 110.044941,10 C110.564343,10.5298535 111.673976,10.7115175 112.42947,10.8053773 Z" id="Shape" stroke-width="0.25" fill="#FFFFFF" fill-rule="nonzero"></path>
                <path d="M118.918832,19.5489393 C118.586555,22.0173684 117.580745,23.8316638 116.862309,26.1303884 C117.760354,26.0563355 117.832197,25.0689639 118.640438,24.9301147 C119.092454,23.9180588 120.13718,23.8193216 120.68798,22.9707991 C121.517175,23.2639251 121.915309,21.4773995 122.900164,21.9433155 C123.070793,22.0235395 122.900164,21.9895986 123.091747,22.1685597 C123.41205,22.4771133 124.402893,22.8844041 124.854909,23.2052999 C125.126847,23.4795965 125.338201,23.8111128 125.47456,24.1772439 C125.513475,24.7573247 124.947707,25.3682609 124.729183,26.0902764 C124.690267,26.3216917 124.801026,26.4852251 124.729183,26.6611007 C124.501678,27.1918129 124.15144,27.6052748 124.079597,28.0218222 C124.567914,27.8067633 125.01268,27.4990418 125.390742,27.1146745 C125.708052,26.8894304 125.854732,26.5808767 126.178029,26.306264 C126.501325,26.0316512 126.863536,25.8125782 127.195813,25.4916824 C127.528089,25.1707866 127.719672,24.8745751 128.042969,24.5968768 C128.283516,24.4246578 128.541464,24.2798202 128.812294,24.1649017 C129.294244,23.7792097 130.428775,22.5542517 131.147211,22.6869298 C131.416624,22.7362984 131.727946,23.0787929 132.090158,23.384261 C132.826555,23.9458286 133.775489,24.0723356 134,24.9270292 C133.485121,26.8338907 132.5302,28.089704 131.605213,29.4442545 C130.707169,31.5177349 129.74626,33.5387613 128.429128,34.99822 C128.225571,35.9238809 127.587959,36.1306119 127.231735,36.8742261 C126.796846,37.0269404 126.327384,37.0409197 125.884667,36.9143381 C125.845752,35.5258467 126.201976,34.2576913 126.483364,32.9710226 C126.516292,32.7858904 126.414514,32.5760739 126.453429,32.3539153 C126.556472,32.0040564 126.677378,31.6600538 126.81564,31.3233462 C127.031171,30.6013306 127.216767,30.0644473 127.767568,29.5460772 C127.764964,29.0682824 127.878149,28.5973796 128.096851,28.176099 C127.599933,28.3704878 127.453252,28.9629108 126.956334,29.1572996 C125.184192,31.4066556 123.453959,33.6652683 121.199866,35.2080365 C120.08629,34.958108 120.002473,33.7979463 119.562431,32.9062263 C119.2092,32.2706058 118.634451,32.1194145 118.688334,31.270892 C118.733236,29.6571565 119.87076,28.1514147 120.340736,26.7598378 C118.14352,28.3674023 117.053892,31.7892621 115.138063,34.0139339 C114.751903,35.1833522 114.0185,35.9547363 112.910911,35.1308981 C112.168527,34.6156135 112.366097,33.4585373 111.848225,32.6964098 C111.647661,32.5174487 111.249528,32.3878562 111.069919,32.1255856 C110.899291,31.7614923 111.084886,30.7000678 111.162717,30.2372373 C111.306404,29.4072281 111.462065,28.4352841 111.866186,28.0310788 C112.003886,26.9603977 113.063579,25.2972936 113.264142,24.4734554 C113.368914,24.3963169 113.35694,24.2050137 113.563491,24.2914087 C114.02748,22.65916 115.326652,21.5637945 115.925349,19.9562301 C116.308515,19.8821772 116.524045,19.4471166 116.868296,19.317524 C116.928166,18.7004168 117.377188,18.506028 117.742393,18 C118.244278,18.4168069 118.64674,18.9467025 118.918832,19.5489393 L118.918832,19.5489393 Z" id="Path" stroke-width="0.25" fill="#FFFFFF" fill-rule="nonzero"></path>
                <path d="M145.380266,21.4277272 C146.190017,21.4277272 146.427463,21.8351369 146.95715,22.2114467 C147.237214,22.4291466 147.462483,22.4851266 147.666443,22.6344065 C148.296588,23.1817662 149.066765,24.1520857 148.960219,25.1970451 C148.893247,25.6666549 149.109383,26.3539645 148.920644,26.7520443 C148.853673,26.8329042 148.631448,26.9697442 148.543166,27.1439041 C148.481964,27.4436528 148.365201,27.7286744 148.199174,27.9836036 C147.772989,28.5589533 145.569005,29.8091726 144.649663,30.0673025 C144.439435,30.0704923 144.232133,30.1181436 144.040828,30.2072524 C143.602466,30.4373923 143.581157,30.5182522 143.017984,30.4871523 C142.36653,30.4218423 141.800313,30.6644222 141.212786,30.6675322 C140.874883,30.6675322 140.482184,30.5338022 140.077308,30.6302122 C139.675477,31.1122619 139.523268,31.7560316 139.313219,32.4340112 C138.823107,33.6780105 138.034665,35.3760696 138.019444,36.6387289 C137.998135,36.7320289 138.065107,36.8470988 138.019444,36.9839388 C138.055974,37.6245984 137.64501,38.1564081 137.84897,38.6944378 C140.068176,37.9822482 141.453276,36.1846692 142.832289,33.8024105 C143.322402,32.9533809 144.442659,32.2474113 144.774474,31.0749419 C145.687728,31.2988618 145.331559,32.7232411 145.4929,33.6406906 C145.492219,33.8058712 145.53535,33.9681553 145.617712,34.1103003 C145.511165,35.1552597 144.704458,36.0758192 144.622265,36.8813088 C144.266097,37.3757985 143.739454,37.5841684 143.483743,38.2528181 C143.136707,38.5047279 142.722699,38.6446779 142.442634,39.0147677 C141.925124,38.9836677 141.702899,39.5123674 141.267582,39.7425073 C141.03318,39.9259972 140.628304,40.0224071 140.293445,40.230777 C139.845951,40.5075668 139.474561,40.8527767 139.206673,40.9802866 C138.752307,41.0314748 138.29248,40.9826951 137.858102,40.8372267 C137.014865,40.5790968 136.820038,39.5932273 136.299483,38.9898877 C135.151828,38.408318 134.886985,37.1238887 135.039194,35.8985493 C135.127475,35.9203193 135.060503,36.0011793 135.139652,36.0695992 C135.279684,34.4959401 135.139652,32.3189413 135.495821,30.997192 C135.711957,31.0998219 135.754576,30.7204021 136.080303,30.7515021 C135.976801,30.3845223 136.122921,30.1792624 136.38472,29.9024726 C136.317749,29.7874026 136.418206,29.5697028 136.180761,29.5603728 C136.634331,28.8418133 137.050934,28.0995902 137.428873,27.336724 C137.584126,27.0848141 138.086416,26.7738143 137.894633,26.5778844 C138.031621,26.6120944 138.098593,26.5312344 138.19905,26.5530044 C138.780488,25.7257448 139.057509,24.9669052 139.952497,24.4102155 C140.451742,23.3186061 141.40457,22.9236363 142.040803,22.0590568 C142.856642,21.632987 144.223478,20.7062075 145.371133,21.0918473 C145.322426,21.2691172 145.301117,21.3593072 145.380266,21.4277272 Z M144.53094,24.3822256 C143.547671,25.6946449 142.317823,26.8484542 141.663325,28.3879034 C141.967742,28.0769036 142.54918,27.8809737 142.951012,27.5917438 C143.203953,27.3403276 143.442794,27.0745178 143.666394,26.7955843 C144.046916,26.4037245 144.406129,26.2979845 144.82927,25.9185647 C145.690772,25.2965651 146.874957,24.1396457 146.555318,22.6966065 C146.2286,22.4297742 145.810908,22.3076932 145.395487,22.3576167 C145.31025,23.1164562 144.853623,23.635826 144.53094,24.3822256 L144.53094,24.3822256 Z" id="Shape" stroke-width="0.25" fill="#FFFFFF" fill-rule="nonzero"></path>
            </g>
        </g>
    </g>
</svg>