<?xml version="1.0" encoding="UTF-8"?>
<svg width="359px" height="105px" viewBox="0 0 359 105" version="1.1" xmlns="http://www.w3.org/2000/svg" xmlns:xlink="http://www.w3.org/1999/xlink">
    <!-- Generator: Sketch 55.2 (78181) - https://sketchapp.com -->
    <title>System / Notifications / Dark / Compact</title>
    <desc>Created with Sketch.</desc>
    <defs>
        <text id="text-1" font-family="Rubik-Regular, Rubik" font-size="13" font-weight="normal" letter-spacing="-0.312">
            <tspan x="308.875" y="25">09:00</tspan>
        </text>
        <text id="text-2" font-family="Rubik-Regular, Rubik" font-size="13" font-weight="normal" letter-spacing="-0.312">
            <tspan x="40.765" y="25">RaY-Time</tspan>
        </text>
    </defs>
    <g id="not_delay" stroke="none" stroke-width="1" fill="none" fill-rule="evenodd">
        <g id="iPhone-XS" transform="translate(-8.000000, -51.000000)">
            <g id="System-/-Notifications-/-Dark-/-Compact" transform="translate(8.000000, 51.000000)">
                <rect id="Platter" fill-opacity="0.6" fill="#252525" fill-rule="evenodd" x="0" y="0" width="359" height="105" rx="13"></rect>
                <g id="System-/-Notifications-/-Light-/-x-/-Title-+-Description" transform="translate(0.000000, 29.000000)" fill="#FFFFFF" font-family="Rubik-Regular, Rubik" font-size="15" font-weight="normal" letter-spacing="-0.24">
                    <text id="Description" line-spacing="18">
                        <tspan x="12" y="45">Because of unexpected events there will be a </tspan>
                        <tspan x="12" y="63">delay of 25 min. Keep calm and see you soon!</tspan>
                    </text>
                    <text id="Title" line-spacing="20">
                        <tspan x="12" y="23">RaY-Delay-Info</tspan>
                    </text>
                </g>
                <g id="Label-Right" fill="#FFFFFF">
                    <use fill-rule="evenodd" style="mix-blend-mode: overlay;" xlink:href="#text-1"></use>
                    <use fill-opacity="0.16" fill-rule="evenodd" style="mix-blend-mode: normal;" xlink:href="#text-1"></use>
                    <use fill-opacity="1" xlink:href="#text-1"></use>
                </g>
                <g id="App-Name" fill="#FFFFFF">
                    <use fill-rule="evenodd" style="mix-blend-mode: overlay;" xlink:href="#text-2"></use>
                    <use fill-opacity="0.16" fill-rule="evenodd" style="mix-blend-mode: normal;" xlink:href="#text-2"></use>
                    <use fill-opacity="1" xlink:href="#text-2"></use>
                </g>
                <g id="Group-53" stroke-width="1" fill-rule="evenodd" transform="translate(11.000000, 12.000000)" stroke="#FFFFFF">
                    <path d="M10.9997068,1.23496412 C10.9648139,0.979788117 7.16606727,0.807990815 7.00561879,1.40172151 C6.9432808,1.632383 7.41395312,2.03875628 7.70863645,1.997018 C7.78510751,1.98625315 7.87964075,1.94104075 7.8948294,1.87576659 C7.93611439,1.69814648 7.35073549,1.53858196 7.36703836,1.43538615 C7.40937893,1.1670966 10.4864593,1.29348578 10.7531111,1.38024073 C10.7662472,1.38449774 10.827295,1.40646783 10.8856453,1.38645499 C10.9659282,1.35885781 11.0037532,1.26451854 10.9997068,1.23496412 Z" id="Stroke-1" stroke-width="0.5"></path>
                    <path d="M12,4.47221947 C12.0067493,4.3727759 6.46698509,3.46130969 6.03028654,4.47221947 C5.81999703,4.9588939 6.73867593,6.01599103 7.73587897,5.99981647 C8.83829366,5.98196456 9.6094221,4.65948489 9.44153829,4.47221947 C9.381876,4.40566416 9.1872378,4.46413219 9.09038691,4.4933063 C8.37537581,4.70824818 8.35102931,5.43969757 7.88643931,5.57161007 C7.33349293,5.72856317 6.36244231,4.97794394 6.48183378,4.61311783 C6.58222963,4.30616069 7.51361687,4.09061975 11.1638522,4.4933063 C11.6490431,4.50037518 11.9983217,4.49702046 12,4.47221947 Z" id="Stroke-3" stroke-width="0.5"></path>
                    <path d="M12,7.47124886 C12.0036108,7.43486317 6.46083746,6.42937138 6.02906685,7.47124886 C5.82321649,7.96788052 6.74415766,9.01353443 7.73500901,8.99986732 C8.86822291,8.98416213 9.56946549,7.59023665 9.44101808,7.47124886 C9.37565708,7.41070595 9.09722056,7.68093112 8.35389807,7.91189331 C7.93089132,8.0432894 7.19532919,8.27185386 6.81520514,7.97183679 C6.72576025,7.90122338 6.58072171,7.74189363 6.61450606,7.61217596 C6.79560353,6.91713141 11.9965195,7.50643568 12,7.47124886 Z" id="Stroke-5" stroke-width="0.5"></path>
                    <path d="M11,10.4482558 C11.0101357,10.3322949 7.59460859,9.5003702 7.07511947,10.4482558 C6.81943823,10.9147444 7.2499653,11.8399669 7.86007874,11.981236 C8.68573276,12.1724002 9.46773689,10.8415851 9.40173875,10.7698685 C9.35519528,10.7192521 8.8885293,11.2969525 8.23199552,11.2507846 C7.75357054,11.2170603 7.26375596,10.858357 7.30851402,10.6496394 C7.42228695,10.1188884 10.9896344,10.5661404 11,10.4482558 Z" id="Stroke-7" stroke-width="0.5"></path>
                    <path d="M4.39847883,2.4446103 C4.53260838,1.83478669 4.55421955,1.18871308 4.92556205,1.03504052 C5.17010623,0.933840001 5.52404504,1.06355386 5.59295856,1.27412832 C5.683037,1.54915415 5.27376338,1.92313437 5.32941694,1.97885081 C5.3868555,2.03650142 5.74481055,1.55919933 6.26041881,1.51315371 C6.29337745,1.51022127 6.74931591,1.47553108 6.92781531,1.75224151 C7.15737829,2.10812793 6.80076199,2.78365077 6.40073209,3.1617489 C6.07375944,3.47084099 5.8770276,3.40557851 5.46973022,3.62750839 C4.7325277,4.02912846 4.40294131,4.79143917 3.74810352,6.20749776 C3.54015172,6.65734718 3.50477059,6.79879082 3.48456191,6.91222026 C3.33207242,7.76811962 3.83901071,8.1564501 3.62487518,8.56087783 C3.38581349,9.01247424 2.4179005,9.16265282 2.02647682,8.78748714 C1.7060704,8.4803916 1.87213859,7.9330852 1.62268568,7.84367685 C1.39828643,7.7633154 1.20378584,8.24311319 0.691683813,8.30937395 C0.442868401,8.34163083 0.111114518,8.27724185 0.0242873108,8.07028616 C-0.0921835469,7.79263984 0.245817815,7.41167166 0.287828923,7.36556366 C0.575659204,7.04929643 0.890583143,7.03500856 1.21883079,6.89980417 C1.34276037,6.84876716 1.64531685,6.70769788 2.41331052,5.72932218 C3.55079793,4.28032038 4.15259591,3.56249547 4.39847883,2.4446103 Z" id="Stroke-9" stroke-width="0.5"></path>
                    <path d="M7.50159676,11.3958759 C8.09949205,11.4078994 8.71102344,11.2967487 8.92274189,11.6468332 C9.0621531,11.8773506 9.00419966,12.2680478 8.81861708,12.3824047 C8.57615759,12.5317634 8.15044801,12.1881583 8.10804452,12.2568927 C8.06426545,12.3278314 8.57795182,12.5972915 8.71443247,13.1179095 C8.72316436,13.1511745 8.83835355,13.6128104 8.61036747,13.853481 C8.31707163,14.1629527 7.61726441,13.9357084 7.18916253,13.6024568 C6.83934863,13.3301244 6.86512565,13.114436 6.58277458,12.7415068 C6.07160012,12.0663868 5.29500011,11.8848987 3.84460913,11.5039538 C3.38391218,11.382984 3.24444116,11.3758367 3.13403657,11.3785086 C2.30151657,11.3984142 2.02789739,11.9997232 1.60876663,11.863056 C1.14077317,11.710491 0.824451455,10.7463392 1.10650349,10.2665344 C1.33736033,9.8736997 1.8822662,9.93141254 1.92120086,9.65647498 C1.95618823,9.40925828 1.46977407,9.30826081 1.3147531,8.79539138 C1.23939569,8.54630436 1.23993396,8.19187806 1.41887791,8.05988665 C1.65900491,7.88274029 2.0784347,8.1517329 2.12945047,8.18539872 C2.47902514,8.41604969 2.54935873,8.73681018 2.73589823,9.04634872 C2.80635143,9.16331074 2.99372824,9.44526201 4.05285875,10.0329444 C5.62160871,10.9033128 6.40562485,11.3738328 7.50159676,11.3958759 Z" id="Stroke-11" stroke-width="0.5"></path>
                    <path d="M14.4822836,10.2603969 C12.1460393,9.26433258 9.16605629,11.2800649 9.00673205,13.690067 C8.85207035,16.0307374 11.3906448,18.2499594 13.7000794,17.9772051 C14.9269436,17.8323548 16.3428864,16.954242 16.8289573,15.4049357 C17.4705487,13.3601527 16.223562,11.002805 14.4822836,10.2603969 Z" id="Stroke-13" stroke-width="0.5"></path>
                    <path d="M12.0286772,12 C11.9641535,12.0025661 12.0286772,14.0911534 12.0286772,14.2743178 L12.0286772,14.2753433 C12.0286772,14.3537365 12.0678688,14.429737 12.1383983,14.488361 C12.2251743,14.5604873 13.8436571,16.0964478 13.9921079,15.9952089 C14.0995191,15.922114 13.082539,15.2366859 12.6446555,14.2263475 C12.3908724,13.640848 12.2596691,13.086911 12.2596691,13.086911 C12.2219404,12.9277886 12.1826718,12.74508 12.1826718,12.74508 C12.0644809,12.1957576 12.0484655,11.9992048 12.0286772,12 Z" id="Stroke-15" stroke-width="0.5"></path>
                    <path d="M20.6015212,2.4446103 C20.4673916,1.83478669 20.4457804,1.18871308 20.0743742,1.03504052 C19.8298938,0.933840001 19.475955,1.06355386 19.4069777,1.27412832 C19.316963,1.54915415 19.7262366,1.92313437 19.6705193,1.97891321 C19.6130807,2.03650142 19.2551895,1.55919933 18.7395812,1.51315371 C18.7066226,1.51022127 18.2506841,1.47553108 18.0721847,1.75224151 C17.8426217,2.10812793 18.199238,2.78365077 18.5992679,3.16181129 C18.9262406,3.47084099 19.1229724,3.40557851 19.5302698,3.62750839 C20.2674723,4.02912846 20.5970587,4.79143917 21.2518965,6.20756016 C21.4598483,6.65734718 21.4952294,6.79879082 21.5153743,6.91222026 C21.6678638,7.76811962 21.1609893,8.1564501 21.3751248,8.56087783 C21.6141865,9.01247424 22.5820358,9.16265282 22.9735232,8.78748714 C23.2939296,8.4803916 23.1278614,7.9330852 23.3773143,7.84367685 C23.6016498,7.7633154 23.7961504,8.24311319 24.3083162,8.30937395 C24.5571316,8.34163083 24.8888855,8.27724185 24.9757127,8.07034855 C25.0921835,7.79263984 24.7541822,7.41167166 24.7121711,7.36556366 C24.4243408,7.04929643 24.1094169,7.03500856 23.7811692,6.89986656 C23.6572396,6.84882955 23.3546831,6.70769788 22.5866895,5.72932218 C21.4492021,4.28032038 20.8474041,3.56249547 20.6015212,2.4446103 Z" id="Stroke-17" stroke-width="0.5"></path>
                    <path d="M18.4984051,12.3958246 C17.9005091,12.407915 17.2889769,12.2967641 17.0772582,12.6468492 C16.9378468,12.8773001 16.9958003,13.2680648 17.1813831,13.3823551 C17.4238429,13.5317141 17.8495531,13.1881083 17.8919566,13.2569096 C17.9357357,13.3278485 17.4220487,13.5973091 17.2855081,14.1178611 C17.2767762,14.1511929 17.1616467,14.6127628 17.389633,14.8534338 C17.6828694,15.1629728 18.3827373,14.9357282 18.8107799,14.602476 C19.1606541,14.3301431 19.134877,14.1144544 19.4172285,13.7414578 C19.9283438,13.0664035 20.7050046,12.884915 22.1553974,12.5039696 C22.6160949,12.3829995 22.7555661,12.3758522 22.865911,12.3784573 C23.6984919,12.3983629 23.9721114,12.9996729 24.3911829,12.8630723 C24.8591769,12.7105071 25.1755589,11.7462869 24.8935065,11.2664814 C24.6626494,10.873646 24.1177428,10.9313589 24.0788081,10.6564209 C24.0438207,10.4092038 24.5302354,10.3082062 24.6852566,9.79540268 C24.7605543,9.54624846 24.7600758,9.19182157 24.5811317,9.05989674 C24.3410044,8.88275009 23.921574,9.15167634 23.8705582,9.18534222 C23.5209831,9.41599357 23.4506494,9.73682138 23.2641097,10.0463604 C23.1936564,10.1632558 23.0062793,10.4452744 21.9471475,11.0328909 C20.3783956,11.9032608 19.5943784,12.3738483 18.4984051,12.3958246 Z" id="Stroke-19" stroke-width="0.5"></path>
                    <path d="M12.046674,1.98667271 C11.4342847,2.08488305 10.9240898,1.61712566 11.0093444,1.3435305 C11.1024303,1.04502786 11.9200417,0.927394842 12.4792233,1.04496333 C12.6608407,1.08316341 13.0314624,1.16111222 12.9978604,1.3665667 C12.961648,1.58815296 12.4611727,1.92020973 12.046674,1.98667271 Z" id="Stroke-21" stroke-width="0.5"></path>
                    <path d="M12.046674,0.986687735 C11.4342847,1.08483147 10.9240898,0.61714852 11.0093444,0.343559158 C11.1024303,0.0449983151 11.9200417,-0.0725676794 12.4792233,0.0449337893 C12.6608407,0.0831330587 13.0314624,0.161080216 12.9978604,0.366530341 C12.961648,0.588111913 12.4611727,0.920226169 12.046674,0.986687735 Z" id="Stroke-23" stroke-width="0.5"></path>
                    <path d="M12.046674,2.98668738 C11.4342847,3.08483371 10.9240898,2.61713841 11.0093444,2.34354183 C11.1024303,2.0449731 11.9200417,1.927404 12.4792233,2.0449731 C12.6608407,2.08317338 13.0314624,2.16105807 12.9978604,2.36657814 C12.961648,2.58816557 12.4612282,2.92022406 12.046674,2.98668738 Z" id="Stroke-25" stroke-width="0.5"></path>
                    <path d="M12.046674,3.98667234 C11.4342847,4.08488538 10.9240898,3.61711514 11.0093444,3.34351246 C11.1024303,3.04500161 11.9200417,2.92742989 12.4792233,3.04493708 C12.6608407,3.08313821 13.0314624,3.16108916 12.9978604,3.36654929 C12.961648,3.58814165 12.4612282,3.92027207 12.046674,3.98667234 Z" id="Stroke-27" stroke-width="0.5"></path>
                    <path d="M12.046674,4.98668726 C11.4342847,5.08483452 10.9240898,4.61713476 11.0093444,4.34353557 C11.1024303,4.04502852 11.9200417,3.92739377 12.4792233,4.04496399 C12.6608407,4.08316463 13.0314624,4.16111459 12.9978604,4.3665721 C12.961648,4.58816164 12.4612282,4.9202233 12.046674,4.98668726 Z" id="Stroke-29" stroke-width="0.5"></path>
                    <path d="M12.046674,5.98668738 C11.4342847,6.08483371 10.9240898,5.61713841 11.0093444,5.34354183 C11.1024303,5.0449731 11.9200417,4.927404 12.4792233,5.0449731 C12.6608407,5.08317338 13.0314624,5.16105807 12.9978604,5.36657814 C12.961648,5.58810104 12.4612282,5.92022406 12.046674,5.98668738 Z" id="Stroke-31" stroke-width="0.5"></path>
                    <path d="M12.046674,6.98667271 C11.4342847,7.08488305 10.9240898,6.61712566 11.0093444,6.3435305 C11.1024303,6.04502786 11.9200417,5.92739484 12.4792233,6.04496333 C12.6608407,6.08316341 13.0314624,6.16111222 12.9978604,6.3665667 C12.961648,6.58815296 12.4612282,6.92020973 12.046674,6.98667271 Z" id="Stroke-33" stroke-width="0.5"></path>
                    <path d="M12.046674,6.98668738 C11.4342847,7.08483371 10.9240898,6.61713841 11.0093444,6.34354183 C11.1024303,6.0449731 11.9200417,5.927404 12.4792233,6.0449731 C12.6608407,6.08317338 13.0314624,6.16112259 12.9978604,6.36657814 C12.961648,6.58816557 12.4612282,6.92022406 12.046674,6.98668738 Z" id="Stroke-35" stroke-width="0.5"></path>
                    <path d="M12.046674,8.98668738 C11.4342847,9.08483371 10.9240898,8.61713841 11.0093444,8.34354183 C11.1024303,8.0449731 11.9200417,7.927404 12.4792233,8.0449731 C12.6608407,8.08310885 13.0314624,8.16105807 12.9978604,8.36657814 C12.961648,8.58810104 12.4612282,8.92022406 12.046674,8.98668738 Z" id="Stroke-37" stroke-width="0.5"></path>
                    <path d="M12.046674,8.98667271 C11.4342847,9.08488305 10.9240898,8.61712566 11.0093444,8.3435305 C11.1024303,8.04502786 11.9200417,7.92739484 12.4792233,8.04496333 C12.6608407,8.08316341 13.0314624,8.16111222 12.9978604,8.3665667 C12.961648,8.58815296 12.4612282,8.92020973 12.046674,8.98667271 Z" id="Stroke-39" stroke-width="0.5"></path>
                    <path d="M12.046674,9.98668738 C11.4342847,10.0848337 10.9240898,9.61713841 11.0093444,9.34354183 C11.1024303,9.0449731 11.9200417,8.927404 12.4792233,9.0449731 C12.6608407,9.08317338 13.0314624,9.16105807 12.9978604,9.36657814 C12.961648,9.58816557 12.4612282,9.92022406 12.046674,9.98668738 Z" id="Stroke-41" stroke-width="0.5"></path>
                    <path d="M14.0002932,1.23494845 C14.0351861,0.979769478 17.8339327,0.808019103 17.9943812,1.40170779 C18.0567192,1.6324209 17.5860469,2.03879893 17.2913635,1.99701123 C17.2148925,1.98624625 17.1203593,1.94103333 17.1051706,1.8757584 C17.0638856,1.69813622 17.6492645,1.53856984 17.6329616,1.43537282 C17.5906211,1.16712908 14.5135407,1.2934708 14.2468889,1.38022676 C14.2337528,1.38453276 14.1726463,1.40645417 14.1143547,1.38644109 C14.0340718,1.35889253 13.9962468,1.26450322 14.0002932,1.23494845 Z" id="Stroke-43" stroke-width="0.5"></path>
                    <path d="M13,4.47220533 C12.9932507,4.37276473 18.533015,3.46132582 18.9697135,4.47220533 C19.180003,4.95892509 18.2613241,6.01599055 17.2640542,5.99981648 C16.1617064,5.9819651 15.3905779,4.65952504 15.5584617,4.47220533 C15.618124,4.40571192 15.8127622,4.46417819 15.9096131,4.49329152 C16.6246242,4.70822697 16.6489707,5.43965445 17.1135607,5.57156299 C17.6664402,5.7285114 18.6375578,4.97797455 18.5181663,4.61309946 C18.4177035,4.30621142 17.4863163,4.09061703 13.8361478,4.49329152 C13.3509569,4.5004201 13.0016783,4.49700557 13,4.47220533 Z" id="Stroke-45" stroke-width="0.5"></path>
                    <path d="M13,7.4712285 C12.9963892,7.43484232 18.5391626,6.4293971 18.9709332,7.4712285 C19.1767836,7.96792671 18.2558424,9.0135346 17.2649241,8.99986731 C16.1317771,8.98416191 15.4305345,7.59027782 15.5589819,7.4712285 C15.624276,7.41074473 15.9027795,7.68091355 16.646102,7.91187882 C17.0691087,8.04327666 17.8046709,8.27184416 18.1847949,7.97182309 C18.2742398,7.90120874 18.4192783,7.74193682 18.385494,7.61215747 C18.2043965,6.91710367 13.0034805,7.50641578 13,7.4712285 Z" id="Stroke-47" stroke-width="0.5"></path>
                    <path d="M13,10.4482898 C12.9898643,10.332327 16.4053914,9.50032855 16.9248805,10.4482898 C17.1805618,10.9147861 16.7500347,11.8399635 16.1399213,11.9812349 C15.3142672,12.1724022 14.5322015,10.8416255 14.5982613,10.7698476 C14.6448047,10.7192303 15.1114091,11.2970004 15.7680045,11.2507716 C16.2464295,11.2171069 16.736244,10.8583376 16.691486,10.6496166 C16.5777131,10.118917 13.010304,10.5661763 13,10.4482898 Z" id="Stroke-49" stroke-width="0.5"></path>
                    <path d="M11.8480529,11.0599021 C13.5420738,10.7249611 15.6484695,11.8130522 15.9615162,13.8621969 C16.2549029,15.7825695 14.8247485,17.5758381 13.2393713,17.9321965 C11.1457395,18.4027819 8.88024958,16.3451636 9.00492382,14.1958034 C9.09650887,12.616777 10.4580047,11.3346604 11.8480529,11.0599021 Z" id="Stroke-51" stroke-width="0.5"></path>
                </g>
            </g>
        </g>
    </g>
</svg>