<svg xmlns="http://www.w3.org/2000/svg" viewBox="0 0 496.48 530.85"><defs><style>.cls-1,.cls-2,.cls-4{fill:none;}.cls-1,.cls-2,.cls-3,.cls-4{stroke:#fff;stroke-miterlimit:10;}.cls-1{stroke-width:5px;}.cls-2{stroke-width:7px;}.cls-3{fill:#fff;stroke-width:0.25px;}.cls-4{stroke-width:8px;}</style></defs><title>Element 5</title><g id="Ebene_2" data-name="Ebene 2"><g id="Ebene_1-2" data-name="Ebene 1"><path class="cls-1" d="M231.76,264.45q-74.35-5.81-76.41,3.82-.94,4.43,13.38,12.1"/><path class="cls-1" d="M232,304.61c-67.79-11.83-86.46-7.4-89.25,0-3,8.05,10.36,25.86,25.5,25.5,11.23-.27,22.23-10.51,25.5-25.5"/><path class="cls-2" d="M232,355.61c-67.79-11.83-86.46-7.4-89.25,0-3,8.05,10.36,25.86,25.5,25.5,11.23-.26,22.23-10.51,25.5-25.5"/><path class="cls-1" d="M234.47,406.61c-46.91-10.9-60.32-6.34-63.75,0-4.22,7.78,3.18,23.62,12.75,25.5,8.75,1.72,20.94-7.93,25.5-25.5"/><path class="cls-3" d="M113.93,279.76c2.11-9.78,2.45-20.13,8.27-22.59,3.84-1.63,9.39.45,10.47,3.83,1.41,4.41-5,10.4-4.13,11.29s6.51-6.72,14.6-7.46c.52-.05,7.67-.6,10.47,3.83,3.6,5.71-2,16.53-8.27,22.59-5.13,5-8.21,3.91-14.6,7.47-11.57,6.43-16.74,18.65-27,41.35-3.26,7.21-3.81,9.48-4.13,11.29-2.39,13.72,5.56,19.95,2.2,26.43-3.75,7.24-18.93,9.64-25.07,3.63-5-4.92-2.42-13.7-6.34-15.13-3.52-1.29-6.57,6.4-14.6,7.47-3.9.51-9.11-.52-10.47-3.83-1.83-4.46,3.47-10.56,4.13-11.3,4.52-5.07,9.46-5.3,14.61-7.46,1.94-.82,6.69-3.08,18.73-18.76C100.64,309.18,110.08,297.68,113.93,279.76Z"/><path class="cls-3" d="M156,424.3c10,.18,20.22-1.49,23.76,3.75,2.33,3.45,1.36,9.3-1.74,11-4.06,2.23-11.17-2.91-11.88-1.88s7.85,5.09,10.14,12.89c.14.5,2.07,7.41-1.74,11-4.91,4.63-16.61,1.23-23.77-3.76-5.84-4.08-5.41-7.31-10.14-12.89-8.54-10.11-21.53-12.82-45.78-18.52C87.13,424.1,84.8,424,83,424c-13.92.29-18.49,9.3-25.5,7.25-7.83-2.28-13.12-16.72-8.4-23.9,3.86-5.88,13-5,13.62-9.13.59-3.7-7.55-5.22-10.14-12.89-1.26-3.73-1.25-9,1.74-11,4-2.65,11,1.38,11.88,1.88,5.85,3.46,7,8.26,10.14,12.89,1.18,1.75,4.32,6,22,14.77C124.54,416.92,137.65,424,156,424.3Z"/><path class="cls-4" d="M268.26,411.76c-38.08-14.82-86.66,15.16-89.25,51-2.53,34.8,38.85,67.81,76.5,63.75,20-2.15,43.08-15.21,51-38.25C317,457.85,296.64,422.8,268.26,411.76Z"/><polyline class="cls-2" points="244.76 430.88 244.76 472.96 270.26 501.01"/><path class="cls-1" d="M251.44,266.22q74.35-5.81,76.41,3.82.94,4.43-13.37,12.1"/><path class="cls-1" d="M251.2,306.38c67.78-11.83,86.46-7.4,89.25,0,3,8.05-10.36,25.86-25.5,25.5-11.24-.27-22.23-10.51-25.5-25.5"/><path class="cls-1" d="M251.2,357.38c67.78-11.83,86.46-7.4,89.25,0,3,8.05-10.36,25.86-25.5,25.5-11.24-.27-22.23-10.51-25.5-25.5"/><path class="cls-1" d="M256.34,408.38c46.91-10.9,60.32-6.34,63.75,0,4.21,7.78-3.18,23.62-12.75,25.5-8.75,1.72-20.94-7.93-25.5-25.5"/><path class="cls-3" d="M369.27,281.53c-2.11-9.78-2.44-20.13-8.27-22.59-3.84-1.63-9.39.45-10.47,3.83-1.41,4.41,5,10.4,4.14,11.29s-6.52-6.72-14.61-7.46c-.52-.05-7.67-.6-10.47,3.83-3.6,5.7,2,16.53,8.27,22.59,5.13,5,8.22,3.91,14.6,7.47,11.57,6.43,16.74,18.65,27,41.35,3.26,7.21,3.82,9.47,4.13,11.29,2.4,13.72-5.56,19.94-2.2,26.43,3.75,7.23,18.94,9.64,25.08,3.63,5-4.92,2.42-13.7,6.33-15.13,3.52-1.29,6.57,6.4,14.6,7.47,3.91.51,9.11-.52,10.47-3.84,1.83-4.45-3.47-10.55-4.13-11.29-4.52-5.07-9.46-5.3-14.6-7.47-1.95-.81-6.69-3.08-18.74-18.76C382.57,311,373.13,299.44,369.27,281.53Z"/><path class="cls-3" d="M327.23,438.82c-10,.18-20.23-1.49-23.77,3.75-2.33,3.45-1.36,9.3,1.75,11,4.05,2.24,11.17-2.9,11.88-1.87S309.23,456.8,307,464.6c-.15.49-2.07,7.4,1.74,11,4.9,4.63,16.6,1.23,23.76-3.76,5.85-4.08,5.42-7.31,10.14-12.89,8.55-10.11,21.53-12.82,45.78-18.53,7.7-1.81,10-1.91,11.88-1.87,13.92.29,18.5,9.3,25.51,7.25,7.82-2.28,13.11-16.72,8.39-23.9-3.86-5.88-13-5-13.62-9.13-.58-3.71,7.55-5.22,10.14-12.89,1.26-3.73,1.25-9-1.74-11-4-2.65-11,1.38-11.88,1.88-5.85,3.45-7,8.26-10.14,12.89-1.18,1.75-4.31,6-22,14.77C358.66,431.44,345.55,438.49,327.23,438.82Z"/><path class="cls-3" d="M241.65,272c-11,1.52-20.21-5.73-18.68-10,1.68-4.63,16.4-6.45,26.47-4.63,3.27.59,9.94,1.8,9.34,5C258.12,265.79,249.11,270.94,241.65,272Z"/><path class="cls-3" d="M241.65,256.76c-11,1.52-20.21-5.73-18.68-10,1.68-4.63,16.4-6.45,26.47-4.63,3.27.6,9.94,1.8,9.34,5C258.12,250.58,249.11,255.73,241.65,256.76Z"/><path class="cls-3" d="M242.41,284.52c-11,1.53-20.22-5.72-18.68-10,1.68-4.63,16.4-6.45,26.47-4.63,3.26.59,9.94,1.8,9.33,5C258.88,278.35,249.87,283.49,242.41,284.52Z"/><path class="cls-3" d="M242.41,299.73c-11,1.53-20.22-5.72-18.68-10,1.68-4.63,16.4-6.45,26.47-4.63,3.26.59,9.94,1.8,9.33,5C258.88,293.56,249.87,298.7,242.41,299.73Z"/><path class="cls-3" d="M242.41,314.94c-11,1.53-20.22-5.72-18.68-10,1.68-4.63,16.4-6.45,26.47-4.63,3.26.59,9.94,1.8,9.33,5C258.88,308.77,249.87,313.91,242.41,314.94Z"/><path class="cls-3" d="M242.41,330.15c-11,1.52-20.22-5.72-18.68-10,1.68-4.63,16.4-6.45,26.47-4.63,3.26.59,9.94,1.8,9.33,5C258.88,324,249.87,329.12,242.41,330.15Z"/><path class="cls-3" d="M242.41,345.36c-11,1.52-20.22-5.72-18.68-10,1.68-4.63,16.4-6.45,26.47-4.63,3.26.59,9.94,1.8,9.33,5C258.88,339.19,249.87,344.33,242.41,345.36Z"/><path class="cls-3" d="M242.41,360.57c-11,1.52-20.22-5.72-18.68-10,1.68-4.63,16.4-6.45,26.47-4.63,3.26.59,9.94,1.8,9.33,5C258.88,354.4,249.87,359.54,242.41,360.57Z"/><path class="cls-3" d="M242.41,375.78c-11,1.52-20.22-5.72-18.68-10,1.68-4.62,16.4-6.44,26.47-4.62,3.26.59,9.94,1.8,9.33,5C258.88,369.61,249.87,374.75,242.41,375.78Z"/><path class="cls-3" d="M242.41,391c-11,1.52-20.22-5.73-18.68-10,1.68-4.62,16.4-6.44,26.47-4.62,3.26.59,9.94,1.8,9.33,5C258.88,384.82,249.87,390,242.41,391Z"/><path class="cls-3" d="M242.41,406.2c-11,1.52-20.22-5.73-18.68-10,1.68-4.62,16.4-6.45,26.47-4.62,3.26.59,9.94,1.8,9.33,5C258.88,400,249.87,405.17,242.41,406.2Z"/><path class="cls-3" d="M45.36,27.81c3.19-.32,7-.45,9.51.3.81.15,1.22.69,1.88.87,3.13.94,5.18,1.16,7.5,3.49a20.53,20.53,0,0,1,3.86,5.44,14,14,0,0,1,2,5.35c.27.57-.51.56-.24,1.13.65,1.73-.07,2,.46,3.94a75.25,75.25,0,0,1-7.21,22.5c.36,1-.36,1.31-.18,2.2C61,75.26,61.13,79,58.71,80.83c.8,1.7-2.37,3.72-1.84,5.63.3,1.5,3.61,1.78,5.1,2.26a19.18,19.18,0,0,0,5.6,1.69C73.05,93.05,78.43,96,84,98.49c.75-1.7-.28-4.59-1-6.48.42.54.66.19,1.55,0,2.53,1.83,7.13.77,8.85,4,.8.15,1.25.84,1.93,1.17,1.76-.5,2.69.25,3.85.64.14.75,0,.78.26,1.34,1.19.54,1.81,2.13,2.91,3a19.24,19.24,0,0,0,.17,2.44c-.94,4.68-8.48,3.37-12.39,3.21C83,106,75.63,104.64,69.41,101.36c-8.34-3-16.92-5.67-24.22-10.43a16.77,16.77,0,0,1-8.3-6,13.14,13.14,0,0,1-2-6.27A9.66,9.66,0,0,1,35.76,76c.3-.84.93-1.58,1.23-2.41a3.37,3.37,0,0,1-.08-1.23,4.85,4.85,0,0,1,1.29-2.11c.06-.48.27-1,.33-1.46,1.56-2.32,1.54-4.8,3.31-6.85-.63-.81.48-1.49.78-2.32.24-1.14.13-2.51,1.06-3.31,0-.63.42-1,.24-1.91.84-1.25.58-3.37,1.78-4.38.43-4.89,3.52-8.9,1.75-14-7.34-.27-14.6,3.8-18.32,7.78a14.5,14.5,0,0,0-1.47,3.54c-1.28.57-2,1.49-3.85,1.69-1.62,1.25-.2,4.53-1.28,6.14.8,10.38.73,21.87.54,32,.32,2.42.88,5.25-.05,7.6.76,2.33.81,6.51,1.28,9.67.14,1.52.37,2.72.46,3.94a27.74,27.74,0,0,1,.11,2.92c0,.15,0,.93,0,.93.06.3.57.51.63.81,1.3,4.24,1.55,8.68,4.88,12.21-3.7.11-8.24-.08-11.6-1.44a8.13,8.13,0,0,1-5.4-.64,11.42,11.42,0,0,1-4.64-3.9c-.65-1-.86-2-2-2.24-.29-.72-.44-1.47-.95-1.68a44.12,44.12,0,0,1-3.07-9.31c-.67-2.66-1.5-5.29-1.1-7.23C.29,95.09.51,89.93.47,85.76c0-1.41-.38-2.72-.34-4.12a147.23,147.23,0,0,1,2.7-23.32A6.76,6.76,0,0,1,4.4,54.45c-.45-.69-.33-.87-.32-1.64,1.12-4.56,3-8.49,3.92-13.17,1.35-1.82,1.45-4.47,3.15-6a5.49,5.49,0,0,1,1.06-3.3A26.34,26.34,0,0,0,17,29.5q.14-.49.36-.54c3.34-.34,6.44-.33,7.41,3C31.22,29.19,38.35,28.41,45.36,27.81Z"/><path class="cls-3" d="M150,102.82c.93,1.43,2.68,2,4,2.92.86,4.79-2.65,6.27-5.15,8.54-3.34.23-5.06-1.41-7.53-3-1.46-.75-3.35-1.15-4.36-1.95-6.24-3.73-7.79-14.57-10.07-23.8-.95,1-.61,2.67-1.55,3.85.77,2.67-1.44,4.75-1.54,6.6a21,21,0,0,1-1,4.56c-.66,2.22-1.21,4.12-2,6.5-.25.49-.93,1.18-1,1.65-.39.66-.15,1.4-.42,1.74-1,2-3.5,2.84-5,4.4a1.84,1.84,0,0,0-2.08.54c-1.66-1.19-3.58-1.89-5.23-2.92a13.68,13.68,0,0,0-4.4-5c-2.3-1.42-2.84-.75-4-4.29-.1-.91-1.11-1.71-1.37-2.6-.8-3,.2-6.3-1.24-9.5.94-1.18.29-2.79.41-4.48.67-4.83,2.38-9.92,3.11-14.29.43-.2.35-1,1-1,.09-4.6,2.28-6.84,4.15-10.58,1.27-2.28,2-5,5-6.08,1.43.45,2.23-.56,3-.64,1.51-.18,2.5.48,4,.45,1.83,0,3.42-.85,4.82-.7,2.75,0,6,1.31,8.28,1.5.64.23,1.36-.15,1.85.1.64.23,1,1.1,2,1.3a13.85,13.85,0,0,0,1.71.26,10.07,10.07,0,0,1,3.07,2.71c1.42,3,1.39,9.49,1.84,13.42,0,1.53-.11,3.07-.09,4.6.52,4.53,1.19,9.05.54,12.8,1.62,4.71,1,13.82,4.66,16.61C147.6,106.31,147.74,103.54,150,102.82Zm-38.56-9.21c4-6.88,10.25-21.53,12.84-29.63-1.83.05-4.51.67-5.64.18-3.06-1.33-5.69,1.11-7,3.4C108.9,74.45,111.42,89.78,111.39,93.61Z"/><path class="cls-3" d="M212.85,14.29c-4,5.55-8.71,10.54-12.83,15.8a28,28,0,0,1-3.93,6.15c-1.3,4-3.56,7.21-5.34,10.81l-.61,0c-1.9,4.22-4.28,8-6.5,11.94-1.25,4.94.94,11.37-1.34,14.24a8.48,8.48,0,0,0-.11,3.51c-.12.62-.87.81-1,1.43-.69,4-2.12,8.34-2.64,12.79-.32,2.45,0,5.33-.65,7.5.25,1.81.62,5.6.89,7.87-.44.33-1.23-.24-1.84-.36-.57.8.7,1.64.27,2.27-5.61.47-6-3.78-10.45-4.44-.4-1.81-3-1.36-4.52-1.89-1.71-.66-3.72-6.64-2.07-9.94.08-6.7,2.75-10.66,3.82-16.2.59-.34.72-.8,1.32-.84-.21-1,.53-1.55,0-2.28,1-.82,1-1.88,1.35-3.12,1.56-2.07,2.47-4.86,4.51-6.65.22-9.61.77-21.68.71-31.12.07-1.37.18-2.29-.79-3.15.87-.81,0-2.59-.21-3.95-.44-2.41-.58-4.84-1-7.56-1-4.82-2.52-9.61-2.9-13.85.92.1,2.06,1.41,3.58,1.47a11.82,11.82,0,0,0,2.56,2.15c3.93,7.7,9,14.12,10.5,24.55,2.23-1,1.88-4.52,4.44-5.12,1-1.88,1.43-4.35,3.52-5.22C195.65,14.64,200,8.3,206,3.25c.3-.17.27-.63.25-1.08.29-.17.32.29.76.11A3.92,3.92,0,0,1,210.08.13c1.52-.09,3.45,1.79,4.86,2.32.46.12,1.06-.06,1.37.07.78.42,1.31,1.61,2.08,1.72C218.29,8.05,214.82,11.29,212.85,14.29Z"/><path class="cls-3" d="M248.29,67.85c-3,1.23-6.52,3.83-10.17,4.76a23.55,23.55,0,0,1-7.91.64c-2.13-.15-4.26-1.35-6.24-1.8-3.5-.6-6.39-1.65-8.38-3.62a8.13,8.13,0,0,1-2.89-1.21c.45-1.37,2.27-1.68,3.48-2.29,4.26-2,8.81-4,14.89-4.32,3.8-.32,7.92.88,12,1.47a20.17,20.17,0,0,1,8.53,2.71C250.71,65.56,248.74,65.87,248.29,67.85Z"/><path class="cls-3" d="M342.22,23.55c-1.88.79-4.1,2.18-6.7,2.48a14.25,14.25,0,0,1-3.66-.08c-4.43.19-11.14.23-16.93.33-.64.42-.57,1.79-1.05,2.22A65.77,65.77,0,0,1,313.44,43a27.77,27.77,0,0,0-.07,3.65c-.12,2-1.15,3.74-1.56,5.54-.34,3,0,5-.94,7.72a17,17,0,0,0-.48,2.86c-.23,1.21-.9,2.23-1.13,3.44a18.58,18.58,0,0,0,0,2.89c-.64,3-1.73,5.84-2.23,8.86-.41,1.8-.38,3.78-.65,5.6-.22,1.2-.9,2.23-1.12,3.43a20.68,20.68,0,0,0,.68,3.7c0,.46-.2.9-.07,1.21.36,1.55,1.33,3.13,1.52,5a13.06,13.06,0,0,0-.15,2.42c.16,2.3,1.24,4.65-.27,6.84-5-.61-7.25-3.49-10.16-5.8l-1.82-.12a3.19,3.19,0,0,1-.5-1.7c-3.43-6.16-4.79-16.3-3.92-25.39.63-7.73,2.06-13.59,3.05-19.77,0-.31.94-.4.21-.9-.13-.47.48-.43.66-.88,1.23-5.1,3.17-9.4,5-13.86.43-4.4,3-6.68,3.42-10.92-.55-.94-2.28-.14-2.85-.78-1.47,1.58-5.37.58-8.12.71-.76,0-1.24.39-1.85.35-7.32.16-14.28-3.17-18.94-6.66-2.89-.18-3.36-2.34-4.78-3.95-.57-.8-1.62-1-1.71-1.93-.59-.35-1.18-.69-1.91-1.19,6.07.38,11.06-1.45,16.47-2.64A199.07,199.07,0,0,1,302.28,6.6C315.18,5,332.82,5.44,343.09,12a109.85,109.85,0,0,1,9.82,6.24c1,.68,2.49,1.68,1.94,3.17C350.48,20.55,343.44,18.59,342.22,23.55Z"/><path class="cls-3" d="M346.88,116.11c-3.3-3.15-7.76-5.52-8.81-10.85-.1-.48.22-.59.43-1,.07-10.86,11.62-33.23,15.89-40.83.8-.22,1-.95,1.83-1.17a7.56,7.56,0,0,0,0-1.07c.79-.21,1.2-1.08,1.84-1.31,0-1.23,1.16-2,2-2.83,3.78,1.68,9,2.92,8.81,7-.25,3.34-3.18,4.83-4,7.79a20.65,20.65,0,0,1-2.82,7c-.06.45-.62,1.3,0,1.38-3.37,5.11-10.64,27.52-12.8,32.78a3.83,3.83,0,0,1-.12,2.28C348.73,116,347.56,115.58,346.88,116.11Zm29.9-79.91c1.13,2.12,4.81,3.33,5.3,5.68.24,1.87-1.56,1.5-2.72,2.28-1.32.76-4.11,4.87-6.26,4.92-1.56.28-2.59-1.38-4-.94-3.34-2.84-.3-10.29-.4-14.6C370.46,35.29,374.22,35.89,376.78,36.2Z"/><path class="cls-3" d="M397.23,67.42c-1.11,8-4.47,13.88-6.87,21.33,3-.24,3.24-3.44,5.94-3.89,1.51-3.28,5-3.6,6.84-6.35,2.77.95,4.1-4.84,7.39-3.33.57.26,0,.15.64.73,1.07,1,4.38,2.32,5.89,3.36a8.84,8.84,0,0,1,2.07,3.15c.13,1.88-1.76,3.86-2.49,6.2-.13.75.24,1.28,0,1.85-.76,1.72-1.93,3.06-2.17,4.41a14.16,14.16,0,0,0,4.38-2.94c1.06-.73,1.55-1.73,2.63-2.62s2.29-1.6,3.4-2.64,1.75-2,2.83-2.9a13.54,13.54,0,0,1,2.57-1.4c1.61-1.25,5.4-5.22,7.8-4.79.9.16,1.94,1.27,3.15,2.26,2.46,1.82,5.63,2.23,6.38,5-1.72,6.18-4.91,10.25-8,14.64-3,6.72-6.21,13.27-10.61,18-.68,3-2.81,3.67-4,6.08a7.63,7.63,0,0,1-4.5.13c-.13-4.5,1.06-8.61,2-12.78.11-.6-.23-1.28-.1-2a33.64,33.64,0,0,1,1.21-3.34c.72-2.34,1.34-4.08,3.18-5.76a9.3,9.3,0,0,1,1.1-4.44c-1.66.63-2.15,2.55-3.81,3.18-5.92,7.29-11.7,14.61-19.23,19.61-3.72-.81-4-4.57-5.47-7.46-1.18-2.06-3.1-2.55-2.92-5.3.15-5.23,3.95-10.11,5.52-14.62C394.64,96,391,107.09,384.6,114.3c-1.29,3.79-3.74,6.29-7.44,3.62-2.48-1.67-1.82-5.42-3.55-7.89-.67-.58-2-1-2.6-1.85-.57-1.18.05-4.62.31-6.12.48-2.69,1-5.84,2.35-7.15.46-3.47,4-8.86,4.67-11.53.35-.25.31-.87,1-.59,1.55-5.29,5.89-8.84,7.89-14.05,1.28-.24,2-1.65,3.15-2.07.2-2,1.7-2.63,2.92-4.27A14.08,14.08,0,0,1,397.23,67.42Z"/><path class="cls-3" d="M484.46,72.83c2.66,0,3.44,1.31,5.18,2.52.92.7,1.66.88,2.33,1.36,2.07,1.76,4.6,4.88,4.25,8.24-.22,1.51.49,3.72-.13,5-.22.26-.95.7-1.24,1.26a7.72,7.72,0,0,1-1.13,2.7c-1.4,1.85-8.64,5.87-11.66,6.7a5,5,0,0,0-2,.45c-1.44.74-1.51,1-3.36.9-2.14-.21-4,.57-5.93.58-1.11,0-2.4-.43-3.73-.12-1.32,1.55-1.82,3.62-2.51,5.8-1.61,4-4.2,9.46-4.25,13.52-.07.3.15.67,0,1.11.12,2.06-1.23,3.77-.56,5.5,7.29-2.29,11.84-8.07,16.37-15.73,1.61-2.73,5.29-5,6.38-8.77,3,.72,1.83,5.3,2.36,8.25a2.94,2.94,0,0,0,.41,1.51c-.35,3.36-3,6.32-3.27,8.91-1.17,1.59-2.9,2.26-3.74,4.41-1.14.81-2.5,1.26-3.42,2.45-1.7-.1-2.43,1.6-3.86,2.34-.77.59-2.1.9-3.2,1.57-1.47.89-2.69,2-3.57,2.41a10.52,10.52,0,0,1-4.43-.46c-2.77-.83-3.41-4-5.12-5.94-3.77-1.87-4.64-6-4.14-9.94.29.07.07.33.33.55.46-5.06,0-12.06,1.17-16.31.71.33.85-.89,1.92-.79-.34-1.18.14-1.84,1-2.73-.22-.37.11-1.07-.67-1.1a79.12,79.12,0,0,0,4.1-7.15c.51-.81,2.16-1.81,1.53-2.44.45.11.67-.15,1-.08,1.91-2.66,2.82-5.1,5.76-6.89,1.64-3.51,4.77-4.78,6.86-7.56,2.68-1.37,7.17-4.35,10.94-3.11C484.27,72.32,484.2,72.61,484.46,72.83Zm-2.79,9.5c-3.23,4.22-7.27,7.93-9.42,12.88,1-1,2.91-1.63,4.23-2.56a30.79,30.79,0,0,0,2.35-2.56c1.25-1.26,2.43-1.6,3.82-2.82,2.83-2,6.72-5.72,5.67-10.36a5.14,5.14,0,0,0-3.81-1.09C484.23,78.26,482.73,79.93,481.67,82.33Z"/></g></g></svg>